<mxfile host="app.diagrams.net" modified="2022-08-16T08:39:39.344Z" agent="5.0 (Windows NT 10.0; Win64; x64) AppleWebKit/537.36 (KHTML, like Gecko) Chrome/104.0.0.0 Safari/537.36" etag="aT8mH2ONZfvDEYHFrU2c" version="20.2.3" type="github">
  <diagram id="8otQLcGt8FNEt5Ys178s" name="第 1 页">
    <mxGraphModel dx="946" dy="500" grid="0" gridSize="10" guides="1" tooltips="1" connect="1" arrows="1" fold="1" page="1" pageScale="1" pageWidth="827" pageHeight="1169" math="0" shadow="0">
      <root>
        <mxCell id="0" />
        <mxCell id="1" parent="0" />
        <mxCell id="aqwmHBOElVPfrlmW572e-4" value="MongoHuge" style="text;html=1;align=center;verticalAlign=middle;whiteSpace=wrap;rounded=1;strokeColor=#6c8ebf;fillColor=#dae8fc;" parent="1" vertex="1">
          <mxGeometry x="76" y="253" width="95" height="47" as="geometry" />
        </mxCell>
        <mxCell id="usVySyoYdFnArKLF2NLm-28" style="edgeStyle=orthogonalEdgeStyle;rounded=0;orthogonalLoop=1;jettySize=auto;html=1;entryX=0;entryY=0.5;entryDx=0;entryDy=0;" edge="1" parent="1" source="usVySyoYdFnArKLF2NLm-3" target="usVySyoYdFnArKLF2NLm-13">
          <mxGeometry relative="1" as="geometry" />
        </mxCell>
        <mxCell id="usVySyoYdFnArKLF2NLm-3" value="JsonPath语法解析" style="text;html=1;align=center;verticalAlign=middle;whiteSpace=wrap;rounded=1;strokeColor=#6c8ebf;fillColor=#dae8fc;" vertex="1" parent="1">
          <mxGeometry x="340" y="99" width="107" height="33" as="geometry" />
        </mxCell>
        <mxCell id="usVySyoYdFnArKLF2NLm-6" style="edgeStyle=orthogonalEdgeStyle;rounded=0;orthogonalLoop=1;jettySize=auto;html=1;entryX=0;entryY=0.5;entryDx=0;entryDy=0;" edge="1" parent="1" source="usVySyoYdFnArKLF2NLm-4" target="usVySyoYdFnArKLF2NLm-3">
          <mxGeometry relative="1" as="geometry" />
        </mxCell>
        <mxCell id="usVySyoYdFnArKLF2NLm-7" style="edgeStyle=orthogonalEdgeStyle;rounded=0;orthogonalLoop=1;jettySize=auto;html=1;entryX=0;entryY=0.5;entryDx=0;entryDy=0;" edge="1" parent="1" source="usVySyoYdFnArKLF2NLm-4" target="usVySyoYdFnArKLF2NLm-5">
          <mxGeometry relative="1" as="geometry" />
        </mxCell>
        <mxCell id="usVySyoYdFnArKLF2NLm-4" value="查询语句" style="text;html=1;align=center;verticalAlign=middle;whiteSpace=wrap;rounded=1;strokeColor=#6c8ebf;fillColor=#dae8fc;" vertex="1" parent="1">
          <mxGeometry x="204" y="132" width="95" height="31" as="geometry" />
        </mxCell>
        <mxCell id="usVySyoYdFnArKLF2NLm-29" style="edgeStyle=orthogonalEdgeStyle;rounded=0;orthogonalLoop=1;jettySize=auto;html=1;entryX=0.005;entryY=-0.089;entryDx=0;entryDy=0;entryPerimeter=0;" edge="1" parent="1" source="usVySyoYdFnArKLF2NLm-5" target="usVySyoYdFnArKLF2NLm-23">
          <mxGeometry relative="1" as="geometry" />
        </mxCell>
        <mxCell id="usVySyoYdFnArKLF2NLm-5" value="NaslPath语法解析" style="text;html=1;align=center;verticalAlign=middle;whiteSpace=wrap;rounded=1;strokeColor=#6c8ebf;fillColor=#dae8fc;" vertex="1" parent="1">
          <mxGeometry x="340" y="163" width="107" height="33" as="geometry" />
        </mxCell>
        <mxCell id="usVySyoYdFnArKLF2NLm-8" value="" style="shape=table;html=1;whiteSpace=wrap;startSize=0;container=1;collapsible=0;childLayout=tableLayout;fillColor=#dae8fc;strokeColor=#6c8ebf;" vertex="1" parent="1">
          <mxGeometry x="477" y="76" width="151" height="131" as="geometry" />
        </mxCell>
        <mxCell id="usVySyoYdFnArKLF2NLm-9" value="" style="shape=tableRow;horizontal=0;startSize=0;swimlaneHead=0;swimlaneBody=0;top=0;left=0;bottom=0;right=0;collapsible=0;dropTarget=0;fillColor=none;points=[[0,0.5],[1,0.5]];portConstraint=eastwest;" vertex="1" parent="usVySyoYdFnArKLF2NLm-8">
          <mxGeometry width="151" height="26" as="geometry" />
        </mxCell>
        <mxCell id="usVySyoYdFnArKLF2NLm-10" value="FieldPath Filter" style="shape=partialRectangle;html=1;whiteSpace=wrap;connectable=0;fillColor=none;top=0;left=0;bottom=0;right=0;overflow=hidden;" vertex="1" parent="usVySyoYdFnArKLF2NLm-9">
          <mxGeometry width="151" height="26" as="geometry">
            <mxRectangle width="151" height="26" as="alternateBounds" />
          </mxGeometry>
        </mxCell>
        <mxCell id="usVySyoYdFnArKLF2NLm-13" value="" style="shape=tableRow;horizontal=0;startSize=0;swimlaneHead=0;swimlaneBody=0;top=0;left=0;bottom=0;right=0;collapsible=0;dropTarget=0;fillColor=none;points=[[0,0.5],[1,0.5]];portConstraint=eastwest;" vertex="1" parent="usVySyoYdFnArKLF2NLm-8">
          <mxGeometry y="26" width="151" height="27" as="geometry" />
        </mxCell>
        <mxCell id="usVySyoYdFnArKLF2NLm-14" value="KvPath Filter" style="shape=partialRectangle;html=1;whiteSpace=wrap;connectable=0;fillColor=none;top=0;left=0;bottom=0;right=0;overflow=hidden;" vertex="1" parent="usVySyoYdFnArKLF2NLm-13">
          <mxGeometry width="151" height="27" as="geometry">
            <mxRectangle width="151" height="27" as="alternateBounds" />
          </mxGeometry>
        </mxCell>
        <mxCell id="usVySyoYdFnArKLF2NLm-17" value="" style="shape=tableRow;horizontal=0;startSize=0;swimlaneHead=0;swimlaneBody=0;top=0;left=0;bottom=0;right=0;collapsible=0;dropTarget=0;fillColor=none;points=[[0,0.5],[1,0.5]];portConstraint=eastwest;" vertex="1" parent="usVySyoYdFnArKLF2NLm-8">
          <mxGeometry y="53" width="151" height="26" as="geometry" />
        </mxCell>
        <mxCell id="usVySyoYdFnArKLF2NLm-18" value="IdxPath Filter" style="shape=partialRectangle;html=1;whiteSpace=wrap;connectable=0;fillColor=none;top=0;left=0;bottom=0;right=0;overflow=hidden;" vertex="1" parent="usVySyoYdFnArKLF2NLm-17">
          <mxGeometry width="151" height="26" as="geometry">
            <mxRectangle width="151" height="26" as="alternateBounds" />
          </mxGeometry>
        </mxCell>
        <mxCell id="usVySyoYdFnArKLF2NLm-21" style="shape=tableRow;horizontal=0;startSize=0;swimlaneHead=0;swimlaneBody=0;top=0;left=0;bottom=0;right=0;collapsible=0;dropTarget=0;fillColor=none;points=[[0,0.5],[1,0.5]];portConstraint=eastwest;" vertex="1" parent="usVySyoYdFnArKLF2NLm-8">
          <mxGeometry y="79" width="151" height="26" as="geometry" />
        </mxCell>
        <mxCell id="usVySyoYdFnArKLF2NLm-22" value="RangePath Filter" style="shape=partialRectangle;html=1;whiteSpace=wrap;connectable=0;fillColor=none;top=0;left=0;bottom=0;right=0;overflow=hidden;" vertex="1" parent="usVySyoYdFnArKLF2NLm-21">
          <mxGeometry width="151" height="26" as="geometry">
            <mxRectangle width="151" height="26" as="alternateBounds" />
          </mxGeometry>
        </mxCell>
        <mxCell id="usVySyoYdFnArKLF2NLm-23" style="shape=tableRow;horizontal=0;startSize=0;swimlaneHead=0;swimlaneBody=0;top=0;left=0;bottom=0;right=0;collapsible=0;dropTarget=0;fillColor=none;points=[[0,0.5],[1,0.5]];portConstraint=eastwest;" vertex="1" parent="usVySyoYdFnArKLF2NLm-8">
          <mxGeometry y="105" width="151" height="26" as="geometry" />
        </mxCell>
        <mxCell id="usVySyoYdFnArKLF2NLm-24" value="RecurPath Filter" style="shape=partialRectangle;html=1;whiteSpace=wrap;connectable=0;fillColor=none;top=0;left=0;bottom=0;right=0;overflow=hidden;" vertex="1" parent="usVySyoYdFnArKLF2NLm-23">
          <mxGeometry width="151" height="26" as="geometry">
            <mxRectangle width="151" height="26" as="alternateBounds" />
          </mxGeometry>
        </mxCell>
      </root>
    </mxGraphModel>
  </diagram>
</mxfile>
